PathFileType	4	(X/Y/Z)	RBDS024\RBDS024runT35.trc
DataRate	CameraRate	NumFrames	NumMarkers	Units	OrigDataRate	OrigDataStartFrame	OrigNumFrames
150.000000	150.000000	6	33	mm	150.000000	1125	4500
Frame#	Time	L.ASIS			L.Heel.Bottom			L.Heel.Lateral			L.Heel.Top			L.Iliac.Crest			L.MT1			L.MT5			L.PSIS			L.Shank.Bottom.Lateral			L.Shank.Bottom.Medial			L.Shank.Top.Lateral			L.Shank.Top.Medial			L.Thigh.Bottom.Lateral			L.Thigh.Bottom.Medial			L.Thigh.Top.Lateral			L.Thigh.Top.Medial			R.ASIS			R.ASY			R.Heel.Bottom			R.Heel.Lateral			R.Heel.Top			R.Iliac.Crest			R.MT1			R.MT5			R.PSIS			R.Shank.Bottom.Lateral			R.Shank.Bottom.Medial			R.Shank.Top.Lateral			R.Shank.Top.Medial			R.Thigh.Bottom.Lateral			R.Thigh.Bottom.Medial			R.Thigh.Top.Lateral			R.Thigh.Top.Medial			
		X1	Y1	Z1	X2	Y2	Z2	X3	Y3	Z3	X4	Y4	Z4	X5	Y5	Z5	X6	Y6	Z6	X7	Y7	Z7	X8	Y8	Z8	X9	Y9	Z9	X10	Y10	Z10	X11	Y11	Z11	X12	Y12	Z12	X13	Y13	Z13	X14	Y14	Z14	X15	Y15	Z15	X16	Y16	Z16	X17	Y17	Z17	X18	Y18	Z18	X19	Y19	Z19	X20	Y20	Z20	X21	Y21	Z21	X22	Y22	Z22	X23	Y23	Z23	X24	Y24	Z24	X25	Y25	Z25	X26	Y26	Z26	X27	Y27	Z27	X28	Y28	Z28	X29	Y29	Z29	X30	Y30	Z30	X31	Y31	Z31	X32	Y32	Z32	X33	Y33	Z33	

1126	7.500000000000001	2213.3772436937	924.5817607077743	919.0128509343439	1671.469873828439	555.2594403462614	1002.493844255274	1675.888769896796	532.0984517538276	956.9774974153905	1709.67460390161	534.0745702562931	996.7208715686226	2148.861047475417	998.9942908156324	853.6550597884685	1619.660524420862	335.1128036781161	1021.300482885022	1608.871081722585	383.9616757689519	914.7005320666013	2028.131471232714	971.7863161486365	951.7126147807409	1780.941373072586	465.3301660640032	925.1623700184664	1786.135110202594	507.7087036261593	953.8944146248608	1858.645065268465	467.4270053887724	902.5548328945521	1868.401050732662	509.7326534438072	933.1122808203891	2108.184073634225	542.6795269228872	859.8890230569003	2052.41811772425	542.2866941726969	904.0026842148407	2093.153376152095	650.9252367365568	845.2935363451246	2040.837159802304	651.4642376659742	889.442371283592	2182.516092196764	953.8782679370191	1146.644646970109	2318.736953804209	78.34675167430308	1041.832080492701	2135.685833076355	28.95287621913929	1005.145754074376	2161.294388101731	37.69755384611626	1055.77582651318	2144.564393292806	71.29593833825449	1014.084148220994	2104.40484572685	1024.559464350468	1184.399749035286	2356.66140928611	46.81387185447638	983.3650723144548	2320.086844077913	26.15634891145135	1098.210360304738	2014.645371896112	981.0590948299749	1054.797340522588	2201.796202434857	154.9486925047594	1097.24404058321	2166.663407847815	172.5740534871294	1057.935204292119	2201.243882739388	230.5366538367539	1128.354682411588	2168.553623456206	246.7270878346412	1089.289947483394	2200.91616977823	590.0956200414448	1195.338844262662	2149.548717553625	567.574972625365	1148.990036542786	2144.003439549402	683.1653202777683	1208.467641706478	2095.560951309303	660.9503868998007	1165.044597200038	
1127	7.506666666666667	2211.75985551421	918.7006156466302	919.1759946791742	1686.518240159607	556.2027122505718	998.0408895450254	1691.729484358012	532.5294263225987	953.0684943284416	1724.803804061968	534.9583126303546	993.3442271528139	2146.997555622156	992.698193632414	853.4872071074914	1634.169927639012	336.4471301710928	1018.942598001867	1625.270190170362	383.9289273791545	911.5792961345476	2025.736688218044	966.8320702882866	951.370067930644	1796.751642827373	464.5899073502359	923.0253991604116	1802.271230997105	507.1970097262818	951.2479022422674	1874.690936070051	465.4526921922787	900.9663053052483	1884.76619849483	507.9779029464426	931.1405467471134	2119.546371042329	537.7467104047222	859.6157450713919	2063.763792317132	534.9828848136328	903.5049786618596	2100.390092659774	645.3465804130498	845.2606158821324	2047.849791948995	643.6168267966156	889.015691715547	2179.214754286593	948.3627025853864	1146.696703349813	2296.864520327291	78.32031001033234	1038.570372139531	2113.033206850155	29.87866484549394	1003.781751928759	2138.839340117995	40.11697557919896	1054.167936621709	2122.579814951955	72.56153861165259	1011.34518517822	2101.773804926255	1018.809985478115	1184.330138030034	2334.363982138808	45.26401931947223	981.0321118179506	2297.24430152983	27.86552801610173	1096.975048417938	2011.874242303352	976.9751132553938	1053.896390490012	2185.413748349283	155.2806542122746	1095.037576509187	2150.022510670079	174.840339174432	1056.778671944276	2188.628759832975	230.3971341748921	1127.158970888722	2155.713758092451	248.4598742827868	1089.004179936278	2197.006512148788	585.9721586843277	1195.538186045907	2146.426954000668	563.4972080321961	1148.361149792401	2139.77847130878	678.9409680468588	1208.101524370267	2092.06302192118	656.7048675950995	1164.007177626784	
1128	7.513333333333334	2209.94468160583	913.5650681010734	919.2806130952825	1701.325002127782	556.0834100182573	993.5146149007961	1707.465157561689	531.8994663435844	949.0716668369372	1739.803511356942	534.9775182913775	989.8465418154359	2144.543545235089	987.4080949725815	853.4650158044815	1649.561008034411	336.4524827526353	1016.620091898792	1642.305673992279	382.4478923274762	908.5084130633587	2023.250060624831	962.6163126709483	951.1577822161912	1812.832244238097	463.3376981945065	920.8968844122588	1818.43361453234	506.2109037176871	948.6063847511748	1890.984064446805	463.4029284084603	899.4260402274687	1901.117718187299	506.2253156612383	929.1765530891784	2131.284466244072	534.0190113905446	859.4225802019389	2075.526385454045	528.7848259645403	903.0397475602074	2107.834981408319	640.7559741761116	845.301954357744	2055.112889538497	636.6489923055879	888.5785983548928	2175.910921330555	943.3158952863261	1146.955344886515	2274.685009858041	78.63105587264498	1035.970483843045	2090.339362561844	30.90917247500199	1002.588968300527	2116.293936129444	42.41097915476947	1052.779792865548	2100.389407410969	73.86042648544982	1009.025187638306	2098.983136651864	1013.490072451859	1184.37429957784	2311.865666039247	44.54404623943368	979.332723953326	2274.260811547317	29.60475550543052	1095.99154142187	2009.111908004338	973.4810885036167	1053.141800504878	2168.343374200452	155.8067904802024	1093.155714135322	2132.930170928358	177.17908444207	1055.791243528472	2175.180065599557	230.3345804297808	1126.006809895669	2142.229535777921	250.1530397748454	1088.637549751093	2192.062939020281	581.9264455562251	1195.310605088744	2142.282937597698	559.7839359305508	1147.189677624261	2134.894230848216	674.9978526288239	1207.390993525773	2087.907418240642	653.0465945221389	1162.45690723644	
1129	7.52	2207.977199644213	909.3182655181815	919.317553326438	1715.744580502482	554.8796118717701	989.0116584719808	1722.952570324674	530.2131554242416	945.0668867918267	1754.528734611218	534.120054295954	986.3005630644747	2141.580152584691	983.2293610430323	853.5352822487021	1665.743717628264	335.0951465000171	1014.347056832513	1659.880114306527	379.5548592409714	905.5212878108817	2020.749022577003	959.1760169690804	951.0074642462134	1829.071265306807	461.6117855152614	918.8189164969488	1834.504950011336	504.788354247675	946.0203990987968	1907.417438123053	461.3356489757652	897.9631168904436	1917.344845296719	504.5290614595552	927.2550232490606	2143.291245117499	531.5712276449109	859.3176448527275	2087.61243705358	523.7884151160157	902.621098948218	2115.412086126672	637.2153951733103	845.3871069698704	2062.569041862933	630.6413469100878	888.1139634753058	2172.684345387428	938.8874588552969	1147.430863140281	2252.235963528982	79.03242614936606	1034.060132021032	2067.563799582171	31.94747191002371	1001.634615543036	2093.629229709965	44.41125991838761	1051.67917399182	2077.989454292318	75.08873421641685	1007.226014013489	2096.02133797187	1008.72770097956	1184.520243312219	2289.184350434541	44.35902159768928	978.2334811224511	2251.148402305761	31.11035874308352	1095.281038248874	2006.42887476889	970.5922889894932	1052.498096410024	2150.547293482415	156.3572422530307	1091.683606736374	2115.325638889811	179.3908028054482	1055.057851582948	2160.83544469195	230.2149253316097	1124.985188719065	2128.016429173035	251.6436045935964	1088.273247844337	2186.041106530397	577.975009769604	1194.688959561312	2137.002273022222	556.46183941601	1145.57432288121	2129.383331624089	671.3874779376436	1206.383061797864	2083.069289736384	650.0411461414062	1160.491565091759	
1130	7.526666666666667	2205.914675934885	906.0607180965251	919.2830845934416	1729.646181719533	552.5624781569903	984.6262592270306	1738.063467208566	527.4737378977929	941.1353639552501	1768.843982397875	532.3672248486242	982.7855698431127	2138.223665122969	980.1989135727771	853.647370994688	1682.636259712528	332.36110108974	1012.135303150563	1677.914680407832	375.3044815211214	902.6452961243015	2018.308479476278	956.5254783584696	950.8714522466696	1845.356372453869	459.4438352802573	916.8325498979924	1850.370913484623	502.9567551932957	943.5337898114758	1923.880055093527	459.2922425449325	896.6035712317861	1933.335536648749	502.9222696795426	925.4061131322263	2155.443794395062	530.4464198968625	859.3027945871564	2099.909052698469	520.063158374367	902.2517622843061	2123.044234232686	634.7637131116239	845.4832599544776	2070.15412142984	625.6580154998259	887.6003050164513	2169.60032304701	935.1998873682362	1148.096199125002	2229.549208635778	79.35170546160491	1032.799721169557	2044.668092294484	32.93702993946276	1000.946065397242	2070.817918629099	46.03191233388984	1050.890917687576	2055.378316628387	76.18997839519054	1005.979564449716	2092.913611437733	1004.633748277891	1184.756019200724	2266.325487293429	44.45399226389824	977.6484373751008	2227.908667242215	32.222611383182	1094.830269987113	2003.887675599179	968.3161685465775	1051.943352999884	2132.016885331508	156.8184401863646	1090.64655073491	2097.165558935257	181.3470882583647	1054.614038728409	2145.565621544416	229.9583237127335	1124.147602863244	2113.017147800726	252.8362546413852	1087.969046873293	2178.951914852528	574.1589372068518	1193.756920580865	2130.521496452674	553.5535400443159	1143.680281397373	2123.303598907549	668.1673126331618	1205.162562350423	2077.547684603615	647.7275711210032	1158.269646962225	
1131	7.533333333333334	2203.823282356967	903.8444229893612	919.182674373592	1742.924635547988	549.0967438070718	980.4471839710228	1752.69183672314	523.6823491724961	937.3570557807672	1782.633242834306	529.6926610291374	979.3835311826308	2134.615346227815	978.28589152864	853.758536815844	1700.168320467008	328.2578978339164	1009.99610847586	1696.347270697044	369.7677639049118	899.9034643799456	2015.994756725449	954.659395070093	950.7271299325564	1861.577521612905	456.8562953456462	914.9763879708639	1865.922479095912	500.7300835955198	941.1832920453878	1940.259020255702	457.2955133001107	895.3700063348429	1948.977986729783	501.4152682333759	923.6551707412796	2167.61202930469	530.6571253264667	859.3743194390908	2112.291224784292	517.6515661440953	901.9240882058159	2130.659395301103	633.4194756850213	845.5609852833602	2077.802838014625	621.747857519033	887.0168796763738	2166.705976030926	932.3414657458814	1148.895829482053	2206.656587634271	79.49592330396081	1032.099526345136	2021.625305219788	33.86714736631962	1000.513940816925	2047.842876054631	47.27044519686311	1050.400711963705	2032.562979983248	77.15926576476856	1005.255031285705	2089.721683703976	1001.297923501024	1185.068976499292	2243.290361843343	44.63209582422016	977.4593638648253	2204.538968704419	32.88272806956618	1094.598088829768	2001.538236593518	966.6549144845326	1051.47020896691	2112.775329055911	157.1436548337513	1090.016046348406	2078.432533813927	182.9991491018132	1054.447178739568	2129.376015112083	229.5476136933419	1123.511880840521	2097.208016133186	253.7102024178831	1087.751962288866	2170.860805600241	570.5448074849477	1192.631591334696	2122.835829822609	551.0829041512009	1141.712552786816	2116.733102262353	665.3993084748812	1203.836993245176	2071.366867188457	646.120822504819	1155.986725071375	
